#!OML:ASF F:\VICON\USERDATA\INSTALL\rory3\rory3.ASF
:FULLY-SPECIFIED
:DEGREES
344
root 0.239712 17.783 0.029403 -0.227391 3.61666 5.46418
lowerback 7.17343 0.110629 -8.47761
upperback 0.675808 -0.461257 1.87672
thorax -3.24498 -0.103152 6.8038
lowerneck -15.436 -4.52304 -14.5888
upperneck 30.813 -3.98743 5.48886
head 13.4295 -2.73327 4.03533
rclavicle 3.77691e-015 -3.18055e-015
rhumerus -35.3095 -19.7373 -69.3216
rradius 30.242
rwrist -12.9129
rhand -11.2268 19.7855
rfingers 7.12502
rthumb 14.802 -9.66584
lclavicle 3.77691e-015 -3.18055e-015
lhumerus -38.094 10.6256 80.2013
lradius 28.9552
lwrist -9.99761
lhand 1.81056 32.3706
lfingers 7.12502
lthumb 27.3234 60.4105
rfemur -24.3563 -7.46558 13.2235
rtibia 69.9742
rfoot -6.29741 -6.61142
rtoes 23.3226
lfemur -9.07938 -4.62647 -29.7495
ltibia 31.373
lfoot -14.8951 -7.06091
ltoes 5.12461
345
root 0.247776 17.7689 0.196368 -0.140099 3.67709 5.51911
lowerback 7.0058 0.00346335 -8.51194
upperback 0.894111 -0.585242 1.85591
thorax -2.89883 -0.189073 6.80776
lowerneck -15.9577 -4.49392 -14.4142
upperneck 30.7619 -3.92926 5.54567
head 13.5056 -2.67255 4.03399
rclavicle -3.57812e-015 -1.90833e-014
rhumerus -34.9741 -20.1628 -69.3975
rradius 29.7791
rwrist -12.4707
rhand -10.9982 20.2154
rfingers 7.12502
rthumb 15.0222 -9.2196
lclavicle -3.57812e-015 -1.90833e-014
lhumerus -37.4713 10.091 80.3912
lradius 29.3654
lwrist -9.38989
lhand 1.52235 31.9001
lfingers 7.12502
lthumb 27.0477 59.9831
rfemur -25.4422 -7.52826 13.2868
rtibia 68.8359
rfoot -7.61838 -6.44577
rtoes 22.6847
lfemur -8.51631 -4.44465 -29.8658
ltibia 31.3217
lfoot -15.4304 -6.99685
ltoes 3.67942
346
root 0.247434 17.761 0.360501 -0.136367 3.92012 5.49918
lowerback 7.17849 -0.10363 -8.51943
upperback 0.763481 -0.748043 1.86032
thorax -3.10347 -0.255573 6.83634
lowerneck -15.527 -4.38321 -14.2955
upperneck 30.5913 -3.87943 5.56212
head 13.3281 -2.63422 4.02641
rclavicle 5.01931e-015 -1.03368e-014
rhumerus -35.4483 -20.2919 -69.2575
rradius 29.5913
rwrist -12.2767
rhand -10.8435 20.3975
rfingers 7.12502
rthumb 15.1713 -9.02632
lclavicle 5.01931e-015 -1.03368e-014
lhumerus -37.6901 8.84364 80.7206
lradius 30.2746
lwrist -8.16595
lhand 1.51152 32.7214
lfingers 7.12502
lthumb 27.0373 60.806
rfemur -26.3142 -7.64466 13.4887
rtibia 67.4533
rfoot -8.92019 -6.45935
rtoes 22.185
lfemur -7.83271 -4.26992 -29.8399
ltibia 31.2155
lfoot -15.8195 -7.1355
ltoes 2.56945
347
root 0.246489 17.7575 0.52335 -0.0508175 4.16668 5.68457
lowerback 7.35463 -0.184803 -8.76456
upperback 0.469817 -0.902914 1.84248
thorax -3.48041 -0.300159 6.98034
lowerneck -14.8438 -4.30361 -14.278
upperneck 30.4991 -3.85564 5.48409
head 13.1379 -2.63687 3.99711
rclavicle 7.15625e-015 8.74653e-015
rhumerus -36.2393 -19.899 -69.1799
rradius 29.7917
rwrist -12.8405
rhand -11.0957 19.9762
rfingers 7.12502
rthumb 14.9283 -9.46586
lclavicle 7.15625e-015 8.74653e-015
lhumerus -38.0713 7.88876 80.9354
lradius 30.9378
lwrist -7.30642
lhand 1.32895 33.2761
lfingers 7.12502
lthumb 26.8626 61.3877
rfemur -27.2102 -7.82798 13.4966
rtibia 65.8875
rfoot -9.96602 -6.63188
rtoes 21.0035
lfemur -7.22685 -4.21855 -30.0233
ltibia 31.088
lfoot -16.1481 -7.23846
ltoes 1.77675
348
root 0.247674 17.7526 0.679723 0.185643 4.30909 5.95136
lowerback 7.24235 -0.215452 -9.10571
upperback 0.569737 -0.957805 1.83628
thorax -3.29666 -0.335487 7.17077
lowerneck -15.2822 -4.43697 -14.4202
upperneck 30.4969 -3.96979 5.59016
head 13.2525 -2.68451 4.04254
rclavicle 5.71506e-015 2.70347e-014
rhumerus -36.1387 -19.9515 -69.2653
rradius 29.8276
rwrist -13.0981
rhand -11.2404 19.7468
rfingers 7.12502
rthumb 14.7889 -9.7055
lclavicle 5.71506e-015 2.70347e-014
lhumerus -37.4287 7.60666 81.086
lradius 31.2498
lwrist -7.13554
lhand 1.13539 33.0838
lfingers 7.12502
lthumb 26.6774 61.2237
rfemur -28.28 -7.98693 13.435
rtibia 64.1693
rfoot -11.1261 -6.65335
rtoes 18.6442
lfemur -6.7239 -4.17202 -30.2949
ltibia 30.7927
lfoot -16.3505 -7.2541
ltoes 0.386221
349
root 0.239486 17.7484 0.824244 0.494069 4.43954 5.9635
lowerback 6.62051 -0.248069 -9.18205
upperback 0.972206 -0.931672 1.85118
thorax -2.527 -0.376604 7.20874
lowerneck -15.6163 -4.59235 -14.5297
upperneck 30.1215 -4.18068 5.83974
head 13.1997 -2.74031 4.11398
rclavicle 1.39149e-015 -3.97569e-015
rhumerus -35.6324 -20.6093 -69.3677
rradius 29.5942
rwrist -12.7504
rhand -10.9711 20.4959
rfingers 7.12502
rthumb 15.0483 -8.93716
lclavicle 1.39149e-015 -3.97569e-015
lhumerus -36.1871 7.32243 81.2108
lradius 31.4195
lwrist -7.07589
lhand 1.23196 32.8827
lfingers 7.12502
lthumb 26.7698 61.0085
rfemur -29.4239 -7.87586 13.7457
rtibia 62.2774
rfoot -11.9339 -6.85753
rtoes 18.1562
lfemur -6.3344 -4.1067 -30.2219
ltibia 30.4144
lfoot -16.2486 -7.3894
ltoes 0.445169
350
root 0.248886 17.7444 0.999539 0.524172 4.70253 6.26639
lowerback 6.97793 -0.344843 -9.36292
upperback 0.555456 -1.12806 1.76428
thorax -3.12735 -0.42549 7.25053
lowerneck -14.8968 -4.42848 -14.6009
upperneck 30.2043 -4.07874 5.94674
head 13.0711 -2.70232 4.19322
rclavicle 9.88954e-015 2.94201e-014
rhumerus -36.815 -20.1787 -69.0994
rradius 29.7347
rwrist -12.8311
rhand -10.846 20.8979
rfingers 7.12502
rthumb 15.1688 -8.52616
lclavicle 9.88954e-015 2.94201e-014
lhumerus -36.6665 6.93507 81.1174
lradius 31.7067
lwrist -6.91847
lhand 1.28373 32.8121
lfingers 7.12502
lthumb 26.8194 60.9303
rfemur -29.8354 -8.1341 13.464
rtibia 60.1773
rfoot -11.9011 -7.01254
rtoes 20.3896
lfemur -5.30982 -4.1008 -30.6225
ltibia 29.8721
lfoot -16.3506 -7.36438
ltoes 0.515564
351
root 0.255151 17.7437 1.15811 0.73581 4.71324 6.44964
lowerback 6.80533 -0.427911 -9.54994
upperback 0.737017 -1.22939 1.73192
thorax -2.81604 -0.497529 7.3244
lowerneck -15.3934 -4.44729 -14.5639
upperneck 30.0534 -4.06511 6.05026
head 13.1111 -2.6678 4.2233
rclavicle -2.13694e-014 1.66979e-014
rhumerus -36.494 -20.1284 -69.4256
rradius 29.7269
rwrist -12.8651
rhand -11.1249 20.5009
rfingers 7.12502
rthumb 14.9001 -8.94321
lclavicle -2.13694e-014 1.66979e-014
lhumerus -35.873 6.87912 81.0962
lradius 32.0083
lwrist -6.7281
lhand 1.19675 32.9847
lfingers 7.12502
lthumb 26.7361 61.1157
rfemur -30.4615 -8.08046 13.3718
rtibia 57.868
rfoot -11.6416 -7.35921
rtoes 21.0865
lfemur -4.57031 -3.99333 -30.858
ltibia 29.2164
lfoot -16.4161 -7.224
ltoes -0.864115
352
root 0.257152 17.748 1.32452 0.980923 4.75595 6.71434
lowerback 6.54689 -0.473461 -9.83112
upperback 0.826316 -1.28152 1.69144
thorax -2.56124 -0.538135 7.43822
lowerneck -15.4183 -4.50206 -14.6304
upperneck 29.8108 -4.11824 6.05833
head 13.0247 -2.68934 4.22125
rclavicle 1.68967e-014 -3.97569e-015
rhumerus -36.2781 -20.5271 -69.3428
rradius 29.2622
rwrist -12.3527
rhand -11.1106 20.6743
rfingers 7.12502
rthumb 14.9139 -8.76882
lclavicle 1.68967e-014 -3.97569e-015
lhumerus -35.4074 6.60846 81.1655
lradius 32.4965
lwrist -6.44816
lhand 1.13053 33.2503
lfingers 7.12502
lthumb 26.6728 61.3909
rfemur -31.0072 -8.0287 13.214
rtibia 55.3351
rfoot -11.7276 -7.5704
rtoes 18.8803
lfemur -3.75173 -3.85996 -31.1175
ltibia 28.3249
lfoot -16.1752 -7.47635
ltoes 0.0239492
353
root 0.256698 17.754 1.49903 1.15581 4.92674 6.94545
lowerback 6.42571 -0.532683 -10.108
upperback 0.749306 -1.37107 1.67762
thorax -2.55025 -0.577631 7.58715
lowerneck -15.372 -4.52843 -14.6022
upperneck 29.8819 -4.13195 5.92598
head 13.0441 -2.71192 4.16331
rclavicle 1.48095e-014 -3.18055e-014
rhumerus -36.6191 -20.726 -69.0675
rradius 28.9655
rwrist -12.0354
rhand -10.9439 20.5044
rfingers 7.12502
rthumb 15.0745 -8.92675
lclavicle 1.48095e-014 -3.18055e-014
lhumerus -35.4172 6.24754 81.2366
lradius 33.1559
lwrist -6.18932
lhand 1.07013 33.4129
lfingers 7.12502
lthumb 26.615 61.5623
rfemur -31.3186 -8.00695 13.0654
rtibia 52.5947
rfoot -11.9296 -7.72472
rtoes 17.3527
lfemur -2.73746 -3.7646 -31.3052
ltibia 27.2828
lfoot -15.878 -7.87384
ltoes 2.02283
354
root 0.257348 17.7624 1.6703 1.32505 5.14334 7.16527
lowerback 6.40004 -0.603826 -10.3569
upperback 0.630656 -1.48665 1.6602
thorax -2.63162 -0.623206 7.72137
lowerneck -15.3795 -4.56637 -14.5291
upperneck 30.0684 -4.17272 5.80297
head 13.1252 -2.74336 4.10018
rclavicle -1.39149e-015 -1.74931e-014
rhumerus -37.1099 -20.5682 -68.9916
rradius 28.9726
rwrist -12.2161
rhand -11.307 19.8705
rfingers 7.12502
rthumb 14.7247 -9.58654
lclavicle -1.39149e-015 -1.74931e-014
lhumerus -35.3966 5.9479 81.2564
lradius 33.6472
lwrist -6.06121
lhand 0.917662 33.1736
lfingers 7.12502
lthumb 26.469 61.3451
rfemur -31.5138 -7.9779 12.8949
rtibia 49.6535
rfoot -11.8101 -8.07363
rtoes 17.5088
lfemur -1.61617 -3.71205 -31.4816
ltibia 26.1098
lfoot -15.7177 -8.01586
ltoes 1.58649
355
root 0.254892 17.7874 1.8419 1.60026 5.27094 7.1981
lowerback 6.23055 -0.669929 -10.4245
upperback 0.502333 -1.56631 1.67476
thorax -2.65311 -0.655506 7.77905
lowerneck -15.2193 -4.56267 -14.5662
upperneck 30.0978 -4.19117 5.8252
head 13.1076 -2.7559 4.11439
rclavicle -1.88845e-015 -2.38542e-015
rhumerus -37.4318 -20.6949 -68.8384
rradius 28.635
rwrist -12.0162
rhand -11.452 20.2524
rfingers 7.12502
rthumb 14.585 -9.21476
lclavicle -1.88845e-015 -2.38542e-015
lhumerus -35.1968 5.77879 81.1904
lradius 33.8755
lwrist -6.05521
lhand 0.712741 32.9294
lfingers 7.12502
lthumb 26.2729 61.1303
rfemur -31.9187 -7.57806 12.8918
rtibia 46.5266
rfoot -11.3867 -8.88156
rtoes 17.6709
lfemur -0.673137 -3.67721 -31.4276
ltibia 25.0121
lfoot -15.609 -8.06227
ltoes 0.290794
356
root 0.249585 17.8086 2.00751 2.01434 5.21029 7.06276
lowerback 5.88657 -0.692033 -10.3381
upperback 0.420079 -1.55397 1.73382
thorax -2.54963 -0.65265 7.7833
lowerneck -15.3517 -4.57457 -14.7463
upperneck 30.1494 -4.21067 6.06421
head 13.1702 -2.75456 4.23909
rclavicle 1.74931e-014 -1.27222e-014
rhumerus -37.6172 -20.9979 -68.6376
rradius 28.3649
rwrist -11.5943
rhand -11.2421 19.8695
rfingers 7.12502
rthumb 14.7873 -9.58297
lclavicle 1.74931e-014 -1.27222e-014
lhumerus -34.9722 5.62254 81.1561
lradius 34.4252
lwrist -5.84416
lhand 0.361085 32.886
lfingers 7.12502
lthumb 25.9362 61.1366
rfemur -32.4687 -6.74894 13.0273
rtibia 43.3036
rfoot -11.516 -9.73818
rtoes 17.1776
lfemur 0.0348021 -3.6128 -31.1825
ltibia 23.8657
lfoot -15.4018 -8.19912
ltoes -0.0027248
357
root 0.250557 17.7945 2.17772 2.27927 5.20956 6.9425
lowerback 5.63647 -0.71792 -10.1509
upperback 0.422418 -1.54889 1.73568
thorax -2.41219 -0.660122 7.66989
lowerneck -15.6815 -4.60032 -14.731
upperneck 30.2836 -4.26588 6.26506
head 13.3065 -2.75142 4.31147
rclavicle -2.38542e-015 1.27222e-014
rhumerus -37.8929 -20.9489 -68.7445
rradius 28.7129
rwrist -11.6283
rhand -11.355 18.185
rfingers 7.12502
rthumb 14.6785 -11.2754
lclavicle -2.38542e-015 1.27222e-014
lhumerus -34.758 5.34549 81.1091
lradius 35.0632
lwrist -5.45887
lhand -0.0929713 32.5133
lfingers 7.12502
lthumb 25.5013 60.8268
rfemur -32.3451 -6.19207 13.1252
rtibia 40.0542
rfoot -12.3588 -9.93612
rtoes 17.024
lfemur 0.955956 -3.54797 -31.008
ltibia 22.7156
lfoot -15.1762 -8.38566
ltoes 0.332147
